<?xml version="1.0" encoding="utf-8"?>
<!-- Generator: Adobe Illustrator 28.0.0, SVG Export Plug-In . SVG Version: 6.00 Build 0)  -->
<svg version="1.1" id="Layer_1" xmlns="http://www.w3.org/2000/svg" xmlns:xlink="http://www.w3.org/1999/xlink" x="0px" y="0px"
	 viewBox="0 0 1920 1313" style="enable-background:new 0 0 1920 1313;" xml:space="preserve">
<style type="text/css">
	.st0{fill:none;stroke:#231F20;stroke-width:0.25;stroke-miterlimit:10;}
</style>
<path class="st0" d="M612.2,1001.7c-43.7,6.7-215,78.4-293.6,12.6c-85.2-71.2-95-187.7-64.6-201.7c30.4-14,35.7,83.9,76.2,75.6
	c40.4-8.3,74.9-61.5,105.5-49.9c30.6,11.6-43.1,25.1-49.4,122.9c-6.1,92.8,191.5,49.7,225-8.9C607.4,971.2,607.9,988,612.2,1001.7z"
	/>
<path class="st0" d="M829.2,1378.1c-34.6-27.5-147.8-174.8-248.7-156.6c-109.3,19.6-175.7,115.8-156.2,143
	c19.5,27.2,72.6-55.2,103.6-27.8c31,27.3,34.6,90.6,66.9,95.6c32.3,5.1-24.9-43.2,18.1-131.2c40.8-83.6,191,51.9,191,119.4
	C809.9,1402.2,818.7,1387.8,829.2,1378.1z"/>
<path class="st0" d="M107.9-1.1C16.3-27.6,301.3-90.4,289.2-7.9c-20.9,141.6,106.4,172.4,69.2,267.8
	c-57.9,148.1,137.6,214,102.4,285.9s-64-47.2-171.6-57.9s-169.8,94.2-176.5,9.8c-6.7-84.4,173.6-92.9,168.2-247.9
	S151,11.4,107.9-1.1z"/>
<path class="st0" d="M305.9,545.7c71.5,4.4,158,75.2,143.8,146.6c-14.3,71.8-154,265.9-141.9,61.5s-188.3-47.7-180.3-100.7
	S234.4,541.3,305.9,545.7z"/>
<path class="st0" d="M558.6,364.7c73.1-0.4,84.8,191.9,182.6,106.2s255.8-46,227.4,133.7s-348.8,163.7-430.5,20.1
	S485.4,365.1,558.6,364.7z"/>
<path class="st0" d="M1088.1,1007.4c-60.1,54.3-255.4-59.2-364.6,9.7c-58.2,36.7-99.4,22.9-111.3-15.3c-4.3-13.6-4.8-30.5-0.9-49.3
	c5.5-27.1,20-58.3,45.3-89.9C748.1,747.9,872.7,759.3,961,849C1050.1,939.5,1151.5,950.1,1088.1,1007.4z"/>
<path class="st0" d="M522.1,712.4c35.6-13.1,89.5,6.5,102.1,91.9c12.6,85.4-141.1,201.4-184.7,171.9s105-77.8,55-139.9
	S486.4,725.5,522.1,712.4z"/>
<path class="st0" d="M-43.3,803.7c-12.6,35.8,7.7,89.4,93.2,100.8c85.5,11.4,199.4-143.8,169.4-187s-76.4,106-139.1,56.9
	C17.4,725.3-30.7,767.9-43.3,803.7z"/>
<path class="st0" d="M1010.5,666.8c132.5-68.6,346.3-76.2,311,53c-35.3,129.2-148.3-22.8-202.6,11.9
	c-54.3,34.7,25.1,147.5-26.1,156.9C1041.7,898,878,735.4,1010.5,666.8z"/>
<path class="st0" d="M2087.4,567.1c-6.1,11.8-11.3,22.1-13.5,29.5c-6,20.8-18.5,36.7-35.2,44.7c-6.8,3.3-16.1,6.1-27.9,6.1
	c-10.2,0-22.2-2.1-36.1-7.8c-20.5-8.4-32.6-29.4-44.5-49.6c-8.4-14.3-17.1-29.3-26.4-34.9c-15.8-9.5-30.1-7.6-46.7-5.4
	c-20.8,2.7-49.3,6.6-69.8-25.1c-19.8-30.5-13.8-55.1-8.9-74.8c4-16.3,7.2-29.2-1.2-47.4c-8.8-19.3-19.4-24.9-34-32.6
	c-16-8.4-36-19-49.9-49.4c-13.8-30.3-8.6-52.5-4.4-70.3c3.8-16.3,6.6-28.1-2.9-47c-8.7-17.4-19.5-21.8-34.3-27.7
	c-16.6-6.8-37.4-15.1-52.9-43.4c-15.6-28.4-11.7-50.2-8.5-67.7c2.8-15.5,4.8-26.7-4.6-44c-15.9-28.9-21.4-31.5-42.2-41
	c-7.7-3.5-17.3-7.9-29.4-14.5c-9.1-5-16.1-9.3-21.7-12.8c-17.1-10.7-19.3-12-45-6.6c-14,3-19.1,10.6-26.7,22.1
	c-8.8,13.2-20.9,31.2-49.2,37.3c-26.5,5.6-46.7-6.4-62.8-16.1c-19.2-11.5-23.9-12.4-31.9-6.7c-22,15.8-23.1,30.7-24.7,53.3
	c-1.6,21.5-3.5,48.3-26.4,76.5c-24.1,29.8-46.6,37.3-66.4,43.9c-15.6,5.2-29.3,9.7-44.6,26.4l-0.1,0.1
	c-18.5,8.2-29.7,18.5-55.8,23.4c4-12.1,10.7-25.4,22.7-40.2c24.1-29.8,46.6-37.3,66.4-43.9c17.3-5.8,32.3-10.7,49.8-32.4
	c15.7-19.4,16.9-36.5,18.4-56.4c1.9-25.4,4-54.3,39.6-80c28.5-20.5,53.3-5.7,71.3,5.1c15.1,8.9,25.1,14.3,36.9,11.7
	c14.1-3,19.1-10.6,26.7-22.1c8.9-13.2,20.9-31.2,49.2-37.3c38.3-8.1,49.6-2.4,71.6,11.3c5.5,3.4,11.7,7.3,19.8,11.7
	c11,6,19.6,9.9,27.2,13.4c25.7,11.8,38,18.6,58.7,56.4c15.6,28.5,11.7,50.2,8.5,67.7c-2.8,15.5-4.8,26.7,4.7,44
	c9.3,16.9,20,21.3,34.8,27.2c17,6.8,38.1,15.4,53,45c15.3,30.6,10,53.2,5.7,71.4c-3.7,15.6-6.6,28,2.1,47
	c8.9,19.4,19.5,24.9,34.1,32.6c16,8.4,36,19,49.9,49.4c13.5,29.6,7.9,52.6,3.3,71.1c-4.3,17.6-7.1,29.2,4.1,46.5
	c7.9,12.1,14.2,11.8,34.9,9.1c18.4-2.5,43.5-5.8,70.2,10.4c17.1,10.4,28.2,29.3,38.8,47.6c8.4,14.3,17.9,30.6,27,34.4
	c9.8,4,23.9,7.8,34.6,2.6c9.5-4.6,14.1-14.7,16.4-22.3c3.2-10.8,9.1-22.5,16-36c14.1-27.5,31.6-61.8,29-99.1
	c-1.5-21-14-43.2-27.1-66.8c-13.2-23.6-26.8-47.8-30.2-73.4c-6.1-45.4,3.5-68.3,12-88.5c7.4-17.5,13.1-31.3,7.7-61.9l35.5-6.3
	c7.3,41-1.8,62.8-9.9,82.1c-7.4,17.5-14.3,34.1-9.5,69.8c2.4,18.7,13.8,39,25.9,60.5c14.6,26,29.5,52.9,31.6,81.9
	C2123.5,496.4,2102.7,537.2,2087.4,567.1z"/>
<path class="st0" d="M-24.9,2012.8c-13.2,1-24.7,1.9-32.2,4c-20.8,5.8-40.9,3.4-56.6-6.6c-6.4-4-13.6-10.5-19.8-20.6
	c-5.3-8.7-9.8-20-12.3-34.8c-3.5-21.9,8-43.2,19-63.9c7.8-14.7,16-29.9,15.9-40.8c-0.2-18.4-9.3-29.7-19.8-42.6
	c-13.2-16.2-31.4-38.6-15.1-72.7c15.6-32.8,39.7-40.6,59.1-46.7c16-5.1,28.6-9.1,39.8-25.8c11.9-17.6,11-29.5,9.9-46
	c-1.2-18-2.7-40.6,16-68.4c18.5-27.6,40.2-34.9,57.6-40.6c15.9-5.3,27.4-9.1,38.5-27.1c10.3-16.6,8.4-28,5.7-43.7
	c-2.9-17.7-6.7-39.8,9.3-67.8c16-28.1,36.6-36.2,53.2-42.7c14.7-5.7,25.3-9.9,35-26.9c16.3-28.6,15.6-34.7,12.9-57.4
	c-1-8.4-2.3-18.9-3.1-32.6c-0.5-10.3-0.5-18.6-0.4-25.2c0.1-20.1,0.1-22.8-17.9-41.8c-9.9-10.3-19-10.7-32.8-11.2
	c-15.8-0.6-37.5-1.5-57.5-22.4c-18.7-19.7-19-43.1-19.2-61.9c-0.3-22.3-2-26.9-11-30.6c-25-10.5-38.2-3.6-58.4,6.9
	c-19.1,9.9-43,22.3-78.9,17.6c-38.1-4.9-56.1-20.2-72.1-33.6c-12.6-10.5-23.6-19.8-45.8-24.2l-0.1,0c-16.7-11.5-31.3-15.6-49.2-35.3
	c12.4-2.9,27.3-4.2,46.1-1.7c38.1,4.9,56.1,20.2,72.1,33.6c14,11.7,26,21.9,53.6,25.5c24.7,3.2,40-4.7,57.7-13.9
	c22.7-11.7,48.4-25.1,88.9-8.1c32.4,13.6,32.7,42.4,33,63.5c0.3,17.5,1,28.8,9.3,37.6c9.9,10.4,19,10.7,32.8,11.2
	c15.9,0.6,37.5,1.5,57.5,22.4c27,28.3,28,41,27.8,66.9c0,6.4-0.1,13.8,0.4,23c0.7,12.5,1.8,21.9,2.8,30.2c3.4,28.1,4,42.1-17.3,79.5
	c-16.1,28.2-36.7,36.2-53.3,42.7c-14.7,5.7-25.3,9.9-35,27c-9.6,16.8-7.7,28.1-5,43.9c3.1,18.1,6.8,40.6-10.6,68.7
	c-18,29.1-40.1,36.4-57.9,42.2c-15.2,5.1-27.3,9.1-38.9,26.4c-11.9,17.7-11.1,29.6-10,46.1c1.2,18,2.7,40.6-16,68.4
	c-18.1,27-40.7,34.3-58.8,40c-17.2,5.5-28.6,9.2-37.4,27.8c-6.2,13-2.6,18.3,10.5,34.5c11.7,14.4,27.7,34.1,27.9,65.2
	c0.1,20.1-10.2,39.4-20.2,58c-7.8,14.6-16.7,31.3-15.1,41c1.7,10.5,5.9,24.4,15.9,30.8c8.9,5.7,19.9,4.3,27.6,2.2
	c10.9-3,23.9-4,39-5.2c30.8-2.4,69.2-5.4,99.6-27.1c17.1-12.3,29.5-34.5,42.7-58.1c13.2-23.6,26.7-47.9,46.7-64.1
	c35.5-28.9,60-32.8,81.7-36.1c18.8-2.9,33.6-5.2,56.8-25.8l24,26.9c-31.1,27.7-54.5,31.4-75.2,34.6c-18.8,2.9-36.5,5.7-64.5,28.5
	c-14.6,11.9-26,32.2-38,53.7c-14.5,26-29.6,52.9-53.2,69.7C54.3,2006.6,8.5,2010.2-24.9,2012.8z"/>
<path class="st0" d="M1325.3,283c-1.2,55.6-77.5,69.8-130,89c-70.8,25.9-98.7,67.4-176.9,63c-101.4-5.8-60.7-40.6-162-49.4
	c-101.2-8.7-130.1,96.4-191.7,32.2c-61.7-64.2,25.5-67.3,36.5-115.1c12.4-53.8-11.5-80.9,29-108.6c37.3-25.4,53.8,25.2,98.9,23.9
	c45.1-1.3,44-29.3,89.2-31.6c59.7-2.9,61.3,25.1,121.1,21.3c7.4-0.4,13.8-1.3,19.5-2.3c26.1-4.9,37.3-15.2,55.8-23.4l0.1-0.1
	c10.3-4.6,22.8-8.6,41.4-10.7c53.2-6.1,55.6,14.6,100.4,36.2C1283.9,220.5,1326.4,233.7,1325.3,283z"/>
<path class="st0" d="M2161.3,1155c-1.2,55.6-77.5,69.8-130,89c-70.8,25.9-98.7,67.4-176.9,63c-101.4-5.8-86.2,236.8-187.4,228
	c-101.2-8.7-205-180-240-246s28-94,80-116s15.4-82.8,59.2-106.9c43.8-24.1,53.8,25.2,98.9,23.9c45.1-1.3,44-29.3,89.2-31.6
	c59.7-2.9,61.3,25.1,121.1,21.3c7.4-0.4,13.8-1.3,19.5-2.3c26.1-4.9,37.3-15.2,55.8-23.4l0.1-0.1c10.3-4.6,22.8-8.6,41.4-10.7
	c53.2-6.1,55.6,14.6,100.4,36.2C2119.9,1092.5,2162.4,1105.7,2161.3,1155z"/>
<path class="st0" d="M1012.3,552.8c23.6,101.9,140.1-6.7,237.7,6.8s198.8,120.7,236.7,50.1c21.6-40.2,21.4-169.7-94.7-180.4
	c-116.1-10.7-146.6,135.8-204.1,84.5C1130.5,462.6,988.7,450.9,1012.3,552.8z"/>
<path class="st0" d="M745.1,1141.2c-5,104.4-139.1,18.5-232.6,49.3c-93.6,30.8-174,154.4-223.9,91.7
	c-28.5-35.7-51.4-163.1,60.9-194.5s156.2,97,215.9,46.6C625,1084,750.1,1036.8,745.1,1141.2z"/>
<path class="st0" d="M161.5,343.3c-169.2,50.7-419.7,12.8-350.2-129.8s167.6,59,238.4,30.6S52.8,67,114.4,67.2
	C175.9,67.5,330.7,292.6,161.5,343.3z"/>
<path class="st0" d="M1214.2-357.5c0,0-157.7,47.6-133.2,126.2c24.4,78.5-16.4,296.6-137,323.8c-120.6,27.2-122.8,91.2-207.6,50.4
	c-27.2-13.1-52.2-8.1-74.6,4c-0.4-3.6-1.4-7.1-3.2-10.4c-3.4-6.4-9.2-10.9-15.6-14.6c26.7-21.3,56.9-52.8,96.3-36.5
	c65.9,27.2,174.2-21.2,224.9-72.4c50.8-51.3,65.4-82.8,48-206.3c-17.5-123.4,53.6-350.6,125.1-281.4
	C1247.2-368.3,1214.2-357.5,1214.2-357.5z"/>
<path class="st0" d="M669.1,247.1c-5.2,17-28,25.4-39.5,39.3c-11.1,13.5-14.8,37.5-31.3,46.2c-16.4,8.6-38.3-1.7-55.7-0.1
	c-18,1.7-37.8,15.8-54.8,10.6c-17.1-5.3-25.4-28-39.3-39.5c-13.5-11.2-37.5-14.9-46.2-31.3c-8.7-16.4,1.7-38.4,0.1-55.8
	c-1.7-18-15.8-37.7-10.5-54.8c5.3-17,28-25.4,39.5-39.3c11.1-13.5,14.8-37.5,31.3-46.2c16.4-8.6,38.3,1.7,55.8,0.1
	c18-1.7,37.7-15.8,54.7-10.6c17.1,5.3,25.4,28,39.4,39.5c8.1,6.8,20.3,10.9,30.5,16.7c6.5,3.7,12.3,8.1,15.6,14.6
	c1.7,3.2,2.7,6.8,3.2,10.4c1.9,14.6-4.5,31.5-3.2,45.4C660.3,210.3,674.4,230,669.1,247.1z"/>
<path class="st0" d="M225.1,1049.8c-6.6,5.4-17.9,2.7-26.2,5.2c-8,2.4-15.9,11-24.7,10.1c-8.8-0.9-14.8-10.9-22.2-14.9
	c-7.6-4.1-19.3-3.7-24.7-10.3c-5.4-6.6-2.7-17.9-5.2-26.2c-2.4-8-11-15.9-10.1-24.7c0.9-8.9,10.9-14.9,14.8-22.2
	c4.1-7.6,3.7-19.2,10.3-24.6c6.6-5.4,17.9-2.7,26.2-5.2c8-2.4,15.9-11,24.7-10.1c8.8,0.9,14.8,10.9,22.2,14.9
	c7.6,4.1,19.2,3.7,24.6,10.3c5.4,6.6,2.7,17.9,5.2,26.2c1.4,4.9,5.2,9.7,7.7,14.8c1.6,3.2,2.7,6.5,2.4,10c-0.2,1.8-0.7,3.4-1.5,5
	c-3.1,6.3-10.2,11.4-13.4,17.3C231.3,1032.8,231.7,1044.4,225.1,1049.8z"/>
<path class="st0" d="M1172.8,468.5c57.9,64,77.7-55.7,161.5-64.2c92.3-9.4,96.5-86.7,199.9-53.4c103.4,33.3,6.3-161.1-74.4-164.9
	c-80.7-3.9-88.2,126.7-148.4,174.6C1239.7,417.6,1114.9,404.5,1172.8,468.5z"/>
<path class="st0" d="M1527.7,428.8c47.5-64.1,198.3-66.6,213.7,82S1923,548,1893.8,679.6c-11.7,52.9-92.2,160-178.1,118.9
	c-88.2-42.2,78.1-203.8-28.6-180.4S1480.2,492.8,1527.7,428.8z"/>
<path class="st0" d="M-361.5,459.1c12-78.9,144-151.8,227.3-27.6s177.8-52.1,213.7,77.8c14.4,52.2-6.5,184.6-101.6,188.5
	c-97.7,4-26.4-216.6-109.7-146S-373.5,538-361.5,459.1z"/>
<path class="st0" d="M1466.6,695.1c77.2-68,148.7-52.5,171-10.8c22.3,41.6-7.4,119.8,30.2,153.7c37.7,33.9,158.4-18.8,193.5,28.3
	s-27.8,151.8-146.8,157.7c-119,6-207.1-4.6-254.6-72.6C1412.3,883.4,1389.5,763.1,1466.6,695.1z"/>
<path class="st0" d="M832.6,1102.1c77.2-68,148.7-52.5,171-10.8c22.3,41.6,52.4,73.7,147.4,72.7s229,38,229,149
	s-180.5,111.9-299.5,117.9s-207.1-4.6-254.6-72.6C778.3,1290.4,755.5,1170.1,832.6,1102.1z"/>
<path class="st0" d="M1165,787.4c27.4-13.7,69.6,53.4,121.8,47.7c52.2-5.7,30.8-91.8,72-91.8s-44.5,229,111.2,324.9
	s-370.5,69.3-408.7,26.5c-38.3-42.8,142.1-27.8,117.6-110.4C1154.5,901.7,1137.6,801.1,1165,787.4z"/>
<path class="st0" d="M1453.3,106.8c-19.6,53.4,86.3,59.9,125.7,118.1c39.4,58.2,28.9,135.3,70,135.3c41.1,0,8.8-60.8-59.9-149.8
	C1520.3,121.3,1472.9,53.4,1453.3,106.8z"/>
</svg>
