<svg width="32" height="31" viewBox="0 0 32 31" fill="none" xmlns="http://www.w3.org/2000/svg">
<g clip-path="url(#clip0_1_139)">
<mask id="mask0_1_139" style="mask-type:luminance" maskUnits="userSpaceOnUse" x="0" y="0" width="32" height="31">
<path d="M23.2715 0C17.4524 0 15.9977 5.90566 15.9977 5.90566C15.9977 5.90566 14.5429 0 8.7239 0C0 0 0 8.85849 0 8.85849C0 20.6698 15.9977 31 15.9977 31C15.9977 31 31.9954 20.6651 31.9954 8.85849C31.9954 8.85849 31.9954 0 23.2668 0L23.2715 0Z" fill="white"/>
</mask>
<g mask="url(#mask0_1_139)">
<path d="M23.2715 0C17.4524 0 15.9977 5.90566 15.9977 5.90566C15.9977 5.90566 14.5429 0 8.7239 0C0 0 0 8.85849 0 8.85849C0 20.6698 15.9977 31 15.9977 31C15.9977 31 31.9954 20.6651 31.9954 8.85849C31.9954 8.85849 31.9954 0 23.2668 0L23.2715 0Z" fill="#F27774"/>
<path d="M23.1093 1.74443C17.4246 1.74443 16.0023 7.31625 16.0023 7.31625C16.0023 7.31625 14.58 1.74443 8.89532 1.74443C0.361372 1.74443 0.361372 10.1045 0.361372 10.1045C0.361372 21.2481 15.9977 31 15.9977 31C15.9977 31 31.634 21.2481 31.634 10.1045C31.634 10.1045 31.634 1.74443 23.1047 1.74443H23.1093Z" fill="#EF5049"/>
<path d="M22.975 3.3713C17.3922 3.3713 15.9977 8.63279 15.9977 8.63279C15.9977 8.63279 14.6032 3.3713 9.02041 3.3713C0.65325 3.3713 0.65325 11.2659 0.65325 11.2659C0.65325 21.7936 16.0023 31 16.0023 31C16.0023 31 31.3514 21.7889 31.3514 11.2659C31.3514 11.2659 31.3514 3.3713 22.9796 3.3713H22.975Z" fill="#E61D30"/>
</g>
</g>
<defs>
<clipPath id="clip0_1_139">
<rect width="32" height="31" fill="white"/>
</clipPath>
</defs>
</svg>
