<svg width="204" height="48" viewBox="0 0 204 48" fill="none" xmlns="http://www.w3.org/2000/svg">
<g clip-path="url(#clip0_1_129)">
<path d="M25.5373 8.16579C25.5373 3.71172 25.5373 2.22703 30.0175 0.742345V0H5.3762V0.742345C9.85643 2.22703 9.85643 3.71172 9.85643 8.16579V10.3928C9.85643 26.7244 8.36302 28.9514 4.62949 26.7244C0.895965 24.4974 -1.34415 28.9514 0.895966 31.1785C3.13608 33.4055 6.86961 33.4055 9.10973 31.1785C11.3498 28.9514 12.0966 22.2703 12.0966 9.65048V2.22703H22.5504V23.755C22.5504 28.2091 22.5504 29.6938 18.0702 31.1785V31.9208H30.0175V31.1785C25.5373 29.6938 25.5373 28.2091 25.5373 23.755V8.16579Z" fill="black"/>
<path d="M72.6843 19.7018C72.8934 19.5682 73.1099 19.442 73.3265 19.301C77.8067 16.3316 82.287 10.3928 85.2738 9.65048V8.90813H74.0732V9.65048C78.5534 11.1352 74.8199 15.5892 71.0864 17.8163C68.4729 19.3752 66.2253 19.8429 65.1127 19.9839V17.0739C65.1127 12.6199 65.1127 11.1352 69.593 9.65048V8.90813H58.3924V9.65048C62.8726 11.1352 62.8726 12.6199 62.8726 17.0739V23.755C62.8726 28.2091 62.8726 29.6938 58.3924 31.1785V31.9208H69.593V31.1785C65.1127 29.6938 65.1127 28.2091 65.1127 23.755V22.8568C66.1955 22.6044 68.3385 21.9957 70.7578 20.7856C79.218 26.2938 78.3593 29.7606 74.0732 31.1785V31.9208H85.2738V31.1785C81.0549 29.7829 80.8085 25.7519 72.6843 19.7018Z" fill="black"/>
<path d="M45.6984 8.90813V9.65048C50.1786 11.1352 50.1786 12.6199 50.1786 17.0739V18.5586C50.1786 23.0127 50.1786 30.4361 43.4583 30.4361C36.7379 30.4361 36.7379 23.0127 36.7379 18.5586V17.0739C36.7379 12.6199 36.7379 11.1352 41.2182 9.65048V8.90813H30.0176V9.65048C34.4978 11.1352 34.4978 12.6199 34.4978 17.0739V18.5586C34.4978 28.9514 37.4846 31.9208 43.4583 31.9208C46.3928 31.9208 48.6031 31.2007 50.0965 29.2484C49.865 36.1893 48.9914 42.3656 45.6984 44.5407C41.2182 47.5101 40.4714 40.829 37.4846 39.3443C34.4978 37.8596 32.2577 40.829 33.7511 43.7983C35.2445 46.7677 41.2182 49.7371 46.4451 46.7677C51.672 43.7983 52.4187 36.3749 52.4187 20.7856V17.0739C52.4187 12.6199 52.4187 11.1352 56.899 9.65048V8.90813H45.6984Z" fill="black"/>
<path d="M155.464 23.755V17.0739C155.464 12.6199 155.464 11.1352 159.944 9.65048V8.90813H148.744V9.65048C153.224 11.1352 153.224 12.6199 153.224 17.0739V19.301H139.783V17.0739C139.783 12.6199 139.783 11.1352 144.264 9.65048V8.90813H133.063V9.65048C137.543 11.1352 137.543 12.6199 137.543 17.0739V23.755C137.543 28.2091 137.543 29.6938 133.063 31.1785V31.9208H144.264V31.1785C139.783 29.6938 139.783 28.2091 139.783 23.755V21.528H153.224V23.755C153.224 28.2091 153.224 29.6938 148.744 31.1785V31.9208H159.944V31.1785C155.464 29.6938 155.464 28.2091 155.464 23.755Z" fill="black"/>
<path d="M96.4744 8.16579C91.2474 8.16579 85.2738 10.8308 85.2738 20.7856C85.2738 30.7405 91.2474 32.6632 96.4744 32.6632C101.701 32.6632 107.675 30.7405 107.675 20.7856C107.675 10.8308 101.701 8.16579 96.4744 8.16579ZM98.7145 31.1785C94.981 31.9208 89.754 29.6938 88.2606 21.528C86.7672 13.3622 90.5007 10.3928 94.2343 9.65048C97.9678 8.90814 103.195 11.8775 104.688 20.0433C106.182 28.2091 102.448 30.4361 98.7145 31.1785Z" fill="black"/>
<path d="M171.145 8.16579C165.918 8.16579 159.944 10.8308 159.944 20.7856C159.944 30.7405 165.918 32.6632 171.145 32.6632C176.372 32.6632 182.346 30.7405 182.346 20.7856C182.346 10.8308 176.372 8.16579 171.145 8.16579ZM173.385 31.1785C169.652 31.9208 164.425 29.6938 162.931 21.528C161.438 13.3622 165.171 10.3928 168.905 9.65048C172.638 8.90814 177.865 11.8775 179.359 20.0433C180.852 28.2091 177.119 30.4361 173.385 31.1785Z" fill="black"/>
<path d="M120.369 8.90813C112.902 8.90813 109.168 11.3356 109.168 16.198C109.168 21.0603 113.649 22.2703 118.876 22.2703C119.503 22.2703 120.1 22.2332 120.66 22.1738C118.726 24.4009 116.389 28.365 113.649 26.7244C109.915 24.4974 107.675 28.9514 109.915 31.1785C110.617 31.8763 115.142 34.1479 118.129 31.1785C120.936 28.3873 121.108 20.9935 124.849 21.9808V31.9208H131.57V31.1785C127.089 29.6938 127.089 28.2091 127.089 23.755V17.0739C127.089 12.6199 127.089 11.1352 131.57 9.65048V8.90813H120.369ZM112.155 16.198C112.155 11.9443 115.515 10.3928 121.862 10.3928H124.849V19.301C120.615 21.7284 112.155 20.4516 112.155 16.198Z" fill="black"/>
<path d="M197.586 20.8525C199.781 19.9468 201.752 18.0687 201.752 14.8469C201.752 9.98453 197.272 8.90813 193.539 8.90813H182.338V9.65048C186.818 11.1352 186.818 12.6199 186.818 17.0739V23.755C186.818 28.2091 186.818 29.6938 182.338 31.1785V31.9208H189.058H194.285C198.766 31.9208 203.993 31.1785 203.993 26.7244C203.993 22.8122 201.685 21.1939 197.586 20.8525ZM198.766 14.8469C198.766 19.1005 196.525 20.0433 189.058 20.0433V10.3928H191.881C194.285 10.3928 198.766 10.5933 198.766 14.8469ZM191.299 30.4361H189.058V22.2703C196.525 22.2703 201.006 22.4708 201.006 26.7244C201.006 30.978 192.792 30.4361 191.299 30.4361Z" fill="black"/>
</g>
<defs>
<clipPath id="clip0_1_129">
<rect width="204" height="48" fill="white"/>
</clipPath>
</defs>
</svg>
