<?xml version="1.0" encoding="UTF-8"?>
<svg id="Layer_2" data-name="Layer 2" xmlns="http://www.w3.org/2000/svg" viewBox="0 0 50 50">
  <defs>
    <style>
      .cls-1, .cls-2, .cls-3 {
        stroke-width: 0px;
      }

      .cls-2 {
        fill: #fff;
      }

      .cls-3 {
        fill-rule: evenodd;
      }
    </style>
  </defs>
  <g id="Layer_1-2" data-name="Layer 1">
    <g>
      <circle class="cls-2" cx="25" cy="25" r="24"/>
      <path class="cls-3" d="m29.24,35.97c.86.74,1.59,2.15,1.59,4.37,0,3.16-.04,5.7-.04,6.48,0,.55.33,1.18,1.18,1.18h-13.94c.85,0,1.18-.63,1.18-1.18s-.04-2.42-.04-4.37c-6.51,1.41-7.87-2.81-7.87-2.81-1.05-2.73-2.6-3.44-2.6-3.44-2.13-1.44.16-1.44.16-1.44,2.36.15,3.6,2.42,3.6,2.42,2.09,3.59,5.47,2.58,6.82,1.95.2-1.52.82-2.58,1.48-3.16-5.2-.55-10.66-2.58-10.66-11.64,0-2.57.93-4.68,2.4-6.32-.23-.59-1.05-3.01.23-6.25,0,0,1.98-.62,6.44,2.42,1.9-.51,3.87-.78,5.85-.78s3.99.27,5.85.78c4.46-3.04,6.44-2.42,6.44-2.42,1.27,3.24.46,5.66.23,6.25,1.51,1.64,2.4,3.75,2.4,6.32,0,9.06-5.46,11.05-10.7,11.64Z"/>
      <path class="cls-1" d="m25,50C11.21,50,0,38.79,0,25S11.21,0,25,0s25,11.21,25,25-11.21,25-25,25Zm0-48C12.32,2,2,12.32,2,25s10.32,23,23,23,23-10.32,23-23S37.68,2,25,2Z"/>
    </g>
  </g>
</svg>