<?xml version="1.0" encoding="UTF-8"?>
<svg id="Layer_2" data-name="Layer 2" xmlns="http://www.w3.org/2000/svg" viewBox="0 0 51.26 50">
  <defs>
    <style>
      .cls-1 {
        fill: #1b1f23;
        fill-rule: evenodd;
        stroke-width: 0px;
      }
    </style>
  </defs>
  <g id="Layer_1-2" data-name="Layer 1">
    <path class="cls-1" d="m25.63,0C11.47,0,0,11.47,0,25.63c0,11.34,7.34,20.92,17.53,24.32,1.28.22,1.76-.54,1.76-1.22,0-.61-.03-2.63-.03-4.77-6.44,1.19-8.11-1.57-8.62-3.01-.29-.74-1.54-3.01-2.63-3.62-.9-.48-2.18-1.67-.03-1.7,2.02-.03,3.46,1.86,3.94,2.63,2.31,3.88,5.99,2.79,7.47,2.11.22-1.67.9-2.79,1.63-3.43-5.7-.64-11.66-2.85-11.66-12.66,0-2.79.99-5.09,2.63-6.89-.26-.64-1.15-3.27.26-6.79,0,0,2.15-.67,7.05,2.63,2.05-.58,4.23-.87,6.41-.87s4.36.29,6.41.87c4.9-3.33,7.05-2.63,7.05-2.63,1.41,3.52.51,6.15.26,6.79,1.63,1.79,2.63,4.07,2.63,6.89,0,9.84-5.99,12.02-11.69,12.66.93.8,1.73,2.34,1.73,4.74,0,3.43-.03,6.18-.03,7.05,0,.67.48,1.47,1.76,1.22,10.12-3.4,17.46-13.01,17.46-24.32C51.26,11.47,39.79,0,25.63,0Z"/>
  </g>
</svg>