<?xml version="1.0" encoding="UTF-8"?>
<svg id="Layer_2" data-name="Layer 2" xmlns="http://www.w3.org/2000/svg" viewBox="0 0 48 48">
  <defs>
    <style>
      .cls-1 {
        fill: none;
      }

      .cls-1, .cls-2 {
        stroke-width: 0px;
      }

      .cls-2 {
        fill: #fff;
        fill-rule: evenodd;
      }
    </style>
  </defs>
  <g id="Layer_1-2" data-name="Layer 1">
    <g>
      <rect class="cls-1" width="48" height="48"/>
      <path class="cls-2" d="m28.75,34.84c.94.81,1.74,2.35,1.74,4.78,0,3.46-.04,6.24-.04,7.09,0,.6.36,1.29,1.29,1.29h-15.25c.93,0,1.29-.69,1.29-1.29s-.04-2.65-.04-4.78c-7.12,1.54-8.61-3.07-8.61-3.07-1.15-2.99-2.84-3.76-2.84-3.76-2.33-1.58.18-1.58.18-1.58,2.58.16,3.94,2.65,3.94,2.65,2.29,3.93,5.98,2.82,7.46,2.13.22-1.66.9-2.82,1.62-3.46-5.69-.6-11.66-2.82-11.66-12.74,0-2.81,1.02-5.12,2.63-6.91-.25-.65-1.15-3.29.25-6.84,0,0,2.17-.68,7.05,2.65,2.08-.56,4.23-.85,6.4-.85s4.37.3,6.4.85c4.88-3.33,7.05-2.65,7.05-2.65,1.39,3.54.5,6.19.25,6.84,1.65,1.79,2.63,4.1,2.63,6.91,0,9.91-5.97,12.09-11.71,12.74Z"/>
    </g>
  </g>
</svg>