<?xml version="1.0" encoding="UTF-8"?>
<svg id="Layer_2" data-name="Layer 2" xmlns="http://www.w3.org/2000/svg" viewBox="0 0 48 48">
  <defs>
    <style>
      .cls-1 {
        fill: none;
      }

      .cls-1, .cls-2 {
        stroke-width: 0px;
      }

      .cls-2 {
        fill: #fff;
      }
    </style>
  </defs>
  <g id="Layer_1-2" data-name="Layer 1">
    <g>
      <rect class="cls-1" width="48" height="48"/>
      <path class="cls-2" d="m9.89,23.41s13.21-5.42,17.8-7.33c1.76-.76,7.71-3.21,7.71-3.21,0,0,2.75-1.07,2.52,1.53-.08,1.07-.69,4.81-1.3,8.86-.92,5.73-1.91,11.99-1.91,11.99,0,0-.15,1.76-1.45,2.06s-3.44-1.07-3.82-1.37c-.31-.23-5.73-3.67-7.71-5.35-.53-.46-1.15-1.37.08-2.44,2.75-2.52,6.03-5.65,8.02-7.64.92-.92,1.83-3.06-1.99-.46-5.42,3.74-10.77,7.26-10.77,7.26,0,0-1.22.76-3.51.08-2.29-.69-4.96-1.6-4.96-1.6,0,0-1.83-1.15,1.3-2.37h0Z"/>
    </g>
  </g>
</svg>